<?xml version="1.0" encoding="utf-8"?>
<!-- Generator: Adobe Illustrator 23.0.1, SVG Export Plug-In . SVG Version: 6.00 Build 0)  -->
<svg version="1.1" id="Camada_1" xmlns="http://www.w3.org/2000/svg" xmlns:xlink="http://www.w3.org/1999/xlink" x="0px" y="0px"
	 viewBox="0 0 1366 785.2" style="enable-background:new 0 0 1366 785.2;" xml:space="preserve">
<style type="text/css">
	.st0{display:none;}
	.st1{display:inline;fill:#B1BDC6;stroke:#000000;stroke-linecap:round;stroke-linejoin:round;stroke-miterlimit:10;}
	.st2{display:inline;fill:#B7B7B7;stroke:#000000;stroke-miterlimit:10;}
	.st3{display:inline;fill:#704F15;stroke:#000000;stroke-width:2;stroke-miterlimit:10;}
	.st4{display:inline;fill:#C97EFF;stroke:#000000;stroke-width:2;stroke-miterlimit:10;}
	.st5{display:inline;fill:#B1BDC6;stroke:#000000;stroke-miterlimit:10;}
	.st6{display:inline;stroke:#02F3E7;stroke-width:0.5;stroke-miterlimit:10;}
	.st7{display:inline;fill:#FA8072;}
	.st8{display:inline;}
	.st9{font-family:'MyriadPro-Bold';}
	.st10{font-size:4.9699px;}
	.st11{fill:#02F3E7;}
	.st12{display:inline;fill:#00AC00;stroke:#000000;stroke-linecap:round;stroke-linejoin:round;stroke-miterlimit:10;}
	.st13{display:inline;fill:#086DBD;stroke:#000000;stroke-miterlimit:10;}
	.st14{display:inline;fill:#0667BF;stroke:#000000;stroke-miterlimit:10;}
	.st15{display:inline;fill:#CA8B83;stroke:#000000;stroke-linecap:round;stroke-linejoin:round;stroke-miterlimit:10;}
	
		.st16{display:inline;fill:#FF7500;stroke:#000000;stroke-width:2;stroke-linecap:round;stroke-linejoin:round;stroke-miterlimit:10;}
	.st17{display:inline;fill:none;stroke:#FF4800;stroke-linecap:round;stroke-linejoin:round;stroke-miterlimit:10;}
	.st18{display:inline;fill:#BF162C;stroke:#000000;stroke-linecap:round;stroke-linejoin:round;stroke-miterlimit:10;}
	
		.st19{display:inline;fill:#1F1F1F;stroke:#000000;stroke-width:2;stroke-linecap:round;stroke-linejoin:round;stroke-miterlimit:10;}
	.st20{display:inline;fill:none;stroke:#000000;stroke-linecap:round;stroke-linejoin:round;stroke-miterlimit:10;}
	.st21{fill:#0000FF;stroke:#000000;stroke-width:1.500000e-02;stroke-miterlimit:10;}
	.st22{fill:#FFFF00;}
	.st23{fill:none;stroke:#000000;stroke-width:1.500000e-02;stroke-miterlimit:10;}
	.st24{fill:#F95C0D;}
	.st25{fill:#FF0000;}
	.st26{fill:#008000;}
	.st27{fill:#FFC0CB;}
	.st28{fill:#00FFFF;}
</style>
<g id="Televisao" class="st0">
	<path class="st1" d="M551.5,516.6c-4.2,23.1-8.5,46.1-12.7,69.2c-2.1,6.7-0.3,13.4,4.2,16.1c5.8,3.6,13.4-1.5,14.6-2.4
		c5.8-3.9,7.9-10,9.1-13.7c6.4-20.3,8.8-53.7,9.4-60.1"/>
	<path class="st1" d="M830.9,516.6c4.2,23.1,8.5,46.1,12.7,69.2c2.1,6.7,0.3,13.4-4.2,16.1c-5.8,3.6-13.4-1.5-14.6-2.4
		c-5.8-3.9-7.9-10-9.1-13.7c-6.4-20.3-8.8-53.7-9.4-60.1"/>
	<path class="st2" d="M661,262.4c-18.8-17.9-37.3-35.5-56.1-53.4c2.7-2.1,5.5-4.2,8.5-6.4c17.6,18.2,34.9,36.1,52.5,54.3"/>
	<path class="st2" d="M684.1,261.8c28.5-33.1,57-66.1,85.3-99.2c-2.7-2.1-5.5-4.2-8.5-6.4c-27.9,33.4-55.8,66.5-84.1,99.8"/>
	
		<ellipse transform="matrix(0.2298 -0.9732 0.9732 0.2298 271.3824 742.6274)" class="st2" cx="604.9" cy="199.9" rx="11.8" ry="11.8"/>
	<circle class="st2" cx="769.6" cy="153.1" r="11.8"/>
	<path class="st3" d="M862.2,538.2H517.8c-14,0-25.2-11.2-25.2-25.2V276.3c0-14,11.2-25.2,25.2-25.2h344.4c14,0,25.2,11.2,25.2,25.2
		V513C887.4,527,876.1,538.2,862.2,538.2z"/>
	<path class="st4" d="M787.8,507.5H539.3c-16.4,0-29.4-13.4-29.4-29.4V306.4c0-16.4,13.4-29.4,29.4-29.4h248.5
		c16.4,0,29.4,13.4,29.4,29.4v171.7C817.6,494.5,804.2,507.5,787.8,507.5z"/>
	<circle class="st5" cx="844.9" cy="322.1" r="17"/>
	<circle class="st5" cx="844.9" cy="376.8" r="17"/>
	<rect x="592.7" y="303.3" class="st6" width="72.2" height="171.7"/>
	<rect x="673.4" y="303.3" class="st6" width="72.2" height="171.7"/>
	<rect x="531.4" y="303.3" class="st6" width="47" height="47"/>
	<rect x="759" y="303.3" class="st6" width="47" height="47"/>
	<rect x="760.5" y="388" class="st7" width="31.3" height="8.2"/>
	<rect x="760.5" y="400.1" class="st7" width="31.3" height="8.2"/>
	<rect x="760.5" y="412.3" class="st7" width="31.3" height="8.2"/>
	<rect x="760.5" y="424.4" class="st7" width="31.3" height="8.2"/>
	<text transform="matrix(1 0 0 1 765.6469 393.9282)" class="st8 st9 st10">1 Jogador</text>
	<text transform="matrix(1 0 0 1 767.2719 405.7573)" class="st8 st9 st10">Começar</text>
	<text transform="matrix(1 0 0 1 770.2875 418.0473)" class="st8 st9 st10">Pausa</text>
	<text transform="matrix(1 0 0 1 771.9105 430.3393)" class="st8 st9 st10">Exit</text>
	<g class="st8">
		<g>
			<path class="st11" d="M533,408.3c-0.3-0.6-0.3-1.2-0.6-1.5c-0.3-0.6-0.6-0.6-1.5-0.6H529v9.7c0,1.5,0.3,1.8,2.1,1.8v0.6h-5.8
				v-0.6c1.8,0,2.1-0.3,2.1-1.8v-9.7h-1.8c-1.2,0-1.5,0-1.8,0.6c-0.3,0.3-0.3,0.9-0.6,1.5h-0.6c0-1.2,0.3-2.4,0.3-3.6h0.3
				c0.3,0.6,0.6,0.3,1.2,0.3h7.9c0.6,0,0.6,0,0.9-0.3h0.6c0,0.9,0,2.4,0.3,3.3L533,408.3z"/>
			<path class="st11" d="M545.1,415c0,0.6-0.6,2.4-0.9,3h-9.7v-0.6c1.8,0,1.8-0.3,1.8-1.8v-7.9c0-1.8-0.3-1.8-1.8-2.1V405h6.1
				c1.8,0,2.7,0,2.7,0c0,0.6,0,1.8,0.3,3H543c-0.3-0.6-0.3-1.2-0.6-1.5c-0.3-0.6-0.9-0.9-1.8-0.9H539c-0.6,0-0.6,0-0.6,0.6v4.2h2.1
				c1.5,0,1.5-0.3,1.8-1.5h0.6v3.9h-0.6c-0.3-1.5-0.3-1.5-1.8-1.5h-2.1v3.9c0,1.5,0.3,1.5,1.5,1.5h1.8c1.2,0,1.5-0.3,1.8-0.6
				c0.3-0.3,0.9-1.2,1.2-1.8L545.1,415z"/>
			<path class="st11" d="M556.9,408.3c-0.3-0.6-0.3-1.2-0.6-1.5c-0.3-0.6-0.6-0.6-1.5-0.6H553v9.7c0,1.5,0.3,1.8,2.1,1.8v0.6h-5.8
				v-0.6c1.8,0,2.1-0.3,2.1-1.8v-9.7h-1.8c-1.2,0-1.5,0-1.8,0.6c-0.3,0.3-0.3,0.9-0.6,1.5h-0.6c0-1.2,0.3-2.4,0.3-3.6h0.3
				c0.3,0.6,0.6,0.3,1.2,0.3h7.9c0.6,0,0.6,0,0.9-0.3h0.6c0,0.9,0,2.4,0.3,3.3L556.9,408.3z"/>
			<path class="st11" d="M570.6,418.3c-0.3,0-0.6,0-0.6,0c-1.5,0-2.1-0.6-3-1.8c-0.6-0.9-1.5-2.1-2.1-3.3c-0.3-0.6-0.6-0.6-1.5-0.6
				h-0.6v3c0,1.8,0.3,1.8,1.8,1.8v0.6h-5.2v-0.6c1.5-0.3,1.8-0.3,1.8-1.8v-7.9c0-1.8-0.3-1.8-1.8-1.8v-0.6h5.2c1.5,0,2.4,0.3,3,0.6
				c0.9,0.6,1.2,1.5,1.2,2.7c0,1.8-1.2,2.7-2.4,3.3c0.3,0.6,1.2,1.8,1.8,2.7c0.6,0.9,1.2,1.5,1.5,2.1c0.6,0.6,0.9,0.9,1.5,0.9
				L570.6,418.3z M563.6,412c0.9,0,1.8-0.3,2.1-0.6c0.9-0.6,1.2-1.2,1.2-2.4c0-2.1-1.5-2.7-3-2.7c-0.6,0-0.9,0-0.9,0.3
				c-0.3,0-0.3,0.3-0.3,0.9v4.9h0.9V412z"/>
			<path class="st11" d="M571.2,418v-0.6c1.5-0.3,1.8-0.3,1.8-1.8v-7.9c0-1.8-0.3-1.8-1.8-1.8v-0.6h5.2v0.6
				c-1.5,0.3-1.8,0.3-1.8,1.8v7.9c0,1.8,0.3,1.8,1.8,1.8v0.6H571.2z"/>
			<path class="st11" d="M584.8,408.3c-0.3-1.2-0.9-2.4-2.7-2.4c-1.5,0-2.1,1.2-2.1,2.1c0,1.2,0.9,2.1,2.4,3
				c2.4,1.2,3.3,2.1,3.3,3.9c0,2.1-1.8,3.6-4.2,3.6c-1.2,0-2.1-0.3-3-0.6c-0.3-0.6-0.3-1.8-0.6-3l0.6-0.3c0.3,1.2,1.2,3,3.3,3
				c1.5,0,2.4-0.9,2.4-2.1c0-1.5-0.9-2.1-2.4-3c-2.1-1.2-3.3-2.1-3.3-3.9c0-1.8,1.5-3.3,3.9-3.3c1.2,0,2.1,0.3,2.7,0.3
				c0,0.6,0.3,1.5,0.3,2.7H584.8z"/>
		</g>
	</g>
</g>
<g id="Miudo2" class="st0">
	<path class="st12" d="M1056.4,562.2c8.2,2.7,23.1,1.8,31.9-8.5c8.5-9.7,6.7-23.1,6.4-25.8c-6.1-22.2-16.1-45.2-31.9-66.8
		c-1.2-1.8-2.4-3.3-3.6-4.9c-8.2,3.3-16.1,6.7-24.3,10C1027.9,516.9,1037,555.5,1056.4,562.2z"/>
	<path class="st12" d="M943.5,449c33.7,1.5,67.4,3.3,100.7,4.9c9.4,38.2,18.8,76.2,27.9,114.4c2.7,6.7,7,18.8,6.1,33.7
		c-0.3,7.6-0.9,17.3-7,26.4c-12.1,18.2-36.7,18.8-40.4,18.8c-22.2,3.6-40.4,2.7-52.2,1.5c-24.9-2.7-47-5.2-56.4-20.9
		c-3-5.2-8.2-17.3-7-31.6c0.3-2.1,0.6-4.2,0.6-5.5c8.5-46.4,16.7-92.5,25.2-139c-0.9-0.6-3-2.4-6.1-2.4c-3.9,0-7.9,3-9.4,7.9
		c-14.3,28.5-28.5,56.7-42.5,85.3c0.9,3.9,3.6,11.2,10,17.9c10,10.6,22.8,12.1,26.1,12.4"/>
	<path class="st13" d="M1077.9,587.6c-18.2,6.7-47.9,14.9-85,14c-31.6-0.6-56.7-7.9-73.7-14c-2.4,11.8-4.6,32.2,7,46.7
		c11.8,14.9,31.9,14.9,71.6,15.2c13.7,0,40.7,0.3,61.9-11.8c9.4-5.5,14.6-14,14.6-14s3.6-5.8,5.5-11.2
		C1081.3,608.3,1081.6,598.9,1077.9,587.6z"/>
	<path class="st14" d="M919.8,585.2c1.8-6.7,0-12.1-0.6-14.6c-5.2-1.8-13.7-5.5-21.8-13c-7-6.4-10.9-13-13-17.6
		c-1.2,2.7-8.5,19.1-0.6,34.6c7.3,14.3,25.2,23.4,31.9,18.8C918,591.9,918.9,588.6,919.8,585.2z"/>
	<path class="st14" d="M1071.2,574.9c-2.4-6.4-1.2-12.1-0.6-14.6c1.5-0.3,14.3-2.7,20.3-15.2c5.8-11.2,1.8-21.8,1.2-23.7
		c2.4,2.4,17.9,19.1,14,39.4c-0.6,2.7-3,16.1-14,21.5c-0.9,0.6-10,4.9-16.1,0.3C1073.4,580.7,1072.2,577.6,1071.2,574.9z"/>
	<path class="st15" d="M870.4,364.3c-6.1-2.1-10-7.6-9.7-14c0.3-5.8,4.2-10.6,9.7-12.4c1.2,5.5,5.2,10.9,3.3,16.1"/>
	<path class="st15" d="M1114.6,357.6c6.1-2.1,10-7.6,9.7-14c-0.3-5.8-4.2-10.6-9.7-12.4c-1.2,5.5-5.2,10.9-3.3,16.1"/>
	<path class="st16" d="M874.9,349.8c-1.2,3-2.7,7.3-3.9,12.7c-0.6,2.7-2.7,13-0.9,25.5c0.6,4.9,3.9,23.7,19.4,38.5
		c5.2,4.9,9.4,7.6,45.8,23.1c10.6,4.6,19.7,8.2,26.4,11.2c10.6,1.8,25.8,3.9,43.7,4.2c16.1,0.3,27,0.6,38.2-2.4
		c8.5-2.1,31.6-10,51.3-41.9c3.3-2.1,17.3-11.8,22.2-30.6c5.5-21.2-4.6-38.2-6.4-41c1.5-4.2,10-29.1-3.3-52.8
		c-6.4-10.9-14.9-17.6-20-20.9c-0.3-2.7-2.1-18.2-16.1-29.1c-13.7-10.9-29.1-9.4-31.9-9.1c-3-3.3-14.9-16.1-34.9-18.2
		c-25.2-2.7-42.2,13.7-44.6,16.1c-2.4-0.9-16.4-5.5-31.3,2.1c-13.4,6.7-18.5,18.8-19.4,21.5c-4.9,3.3-14.9,11.2-21.5,25.8
		c-5.8,12.4-5.8,23.4-5.5,29.1c-1.2,0.3-9.4,3-13.4,11.8c-3.9,8.8-0.6,17,0,18.2L874.9,349.8z"/>
	<path class="st17" d="M900.4,331.2c-1.2-9.1,4.2-17.6,12.4-20c7.3-2.1,15.8,0.9,20,7.6c0.9-8.5,7.6-15.2,16.1-16.1
		c7.9-0.9,15.8,3.6,18.8,11.2"/>
	<path class="st17" d="M1013.9,317c2.7-5.5,8.8-8.5,14.6-7.3c6.1,1.2,10.3,6.4,10.3,12.4c3.9-3.9,9.7-5.5,14.6-3.3
		c5.5,2.1,7.3,7.6,7.6,8.5c5.5-2.1,11.5-0.6,15.2,3.3c3.3,3.6,4.6,9.1,2.7,14"/>
	<path class="st17" d="M989.3,408.6c2.7-9.1,11.2-12.7,16.1-10.3c3.6,1.8,5.8,7.3,4.9,13.4c3-5.5,9.1-7.9,14-6.4
		c6.1,1.8,9.7,10,6.4,17.3c3.9-6.4,9.4-9.7,12.4-8.5c3.3,1.5,5.5,9.1,1.5,18.2"/>
</g>
<g id="Miudo1" class="st0">
	<path class="st18" d="M437.1,561.9c8.2,2.7,23.1,1.8,31.9-8.5c8.5-9.7,6.7-23.1,6.4-25.8c-6.1-22.2-16.1-45.2-31.9-66.8
		c-1.2-1.8-2.4-3.3-3.6-4.9c-8.2,3.3-16.1,6.7-24.3,10C408.8,516.6,418,555.2,437.1,561.9z"/>
	<path class="st18" d="M324.5,448.4c33.7,1.8,67.4,3.3,100.7,4.9c9.4,38.2,18.8,76.2,27.9,114.4c2.7,6.7,7,18.8,6.1,33.7
		c-0.3,7.6-0.9,17.3-7,26.4c-12.1,18.2-36.7,18.8-40.4,18.8c-22.2,3.6-40.4,2.7-52.2,1.5c-24.9-2.7-47-5.2-56.4-20.9
		c-3-5.2-8.2-17.3-7-31.6c0.3-2.1,0.6-4.2,0.6-5.5c8.5-46.4,16.7-92.5,25.2-139c-0.9-0.6-3-2.4-6.1-2.4c-3.9,0-7.9,3-9.4,7.9
		c-14.3,28.5-28.5,56.7-42.5,85.3c0.9,3.9,3.6,11.2,10,17.9c10,10.6,22.8,12.1,26.1,12.4"/>
	<path class="st13" d="M458.9,587.3c-18.2,6.7-47.9,14.9-85,14c-31.6-0.6-56.7-7.9-73.7-14c-2.4,11.8-4.6,32.2,7,46.7
		c11.8,14.9,31.9,14.9,71.6,15.2c13.7,0,40.7,0.3,61.9-11.8c9.4-5.5,14.6-14,14.6-14s3.6-5.8,5.5-11.2
		C462.3,608,462.6,598.3,458.9,587.3z"/>
	<path class="st14" d="M300.5,584.6c1.8-6.7,0-12.1-0.6-14.6c-5.2-1.8-13.7-5.5-21.8-13c-7-6.4-10.9-13-13-17.6
		c-1.2,2.7-8.5,19.1-0.6,34.6c7.3,14.3,25.2,23.4,31.9,18.8C299,591.6,299.9,587.9,300.5,584.6z"/>
	<path class="st14" d="M452.2,574.6c-2.4-6.4-1.2-12.1-0.6-14.6c1.5-0.3,14.3-2.7,20.3-15.2c5.8-11.2,1.8-21.8,1.2-23.7
		c2.4,2.4,17.9,19.1,14,39.4c-0.6,2.7-3,16.1-14,21.5c-0.9,0.6-10,4.9-16.1,0.3C454.4,580.4,453.2,577.3,452.2,574.6z"/>
	<path class="st15" d="M251.4,363.7c-6.1-2.1-10-7.6-9.7-14c0.3-5.8,4.2-10.6,9.7-12.4c1.2,5.5,5.2,10.9,3.3,16.1"/>
	<path class="st15" d="M495.6,357.3c6.1-2.1,10-7.6,9.7-14c-0.3-5.8-4.2-10.6-9.7-12.4c-1.2,5.5-5.2,10.9-3.3,16.1"/>
	<path class="st19" d="M255.9,349.5c-1.2,3-2.7,7.3-3.9,12.7c-0.6,2.7-2.7,13-0.9,25.5c0.6,4.9,3.9,23.7,19.4,38.5
		c5.2,4.9,9.4,7.6,45.8,23.1c10.6,4.6,19.7,8.2,26.4,11.2c10.6,1.8,25.8,3.9,43.7,4.2c16.1,0.3,27,0.6,38.2-2.4
		c9.1-2.7,31.9-10.6,51.9-42.5c3.3-2.1,17.3-11.8,22.2-30.6c5.5-21.2-4.6-38.2-6.4-41c1.5-4.2,10-29.1-3.3-52.8
		c-6.4-10.9-14.9-17.6-20-20.9c-0.3-2.7-2.1-18.2-16.1-29.1c-13.7-10.9-29.1-9.4-31.9-9.1c-3-3.3-14.9-16.1-34.9-18.2
		c-25.2-2.7-42.2,13.7-44.6,15.8c-2.4-0.6-16.4-5.2-31.3,2.1c-13.4,6.7-18.5,18.8-19.4,21.5c-4.9,3.3-14.9,11.2-21.5,25.8
		c-5.8,12.4-5.8,23.4-5.5,29.1c-1.2,0.3-9.4,3-13.4,11.8c-3.9,8.8-0.6,17,0,18.2L255.9,349.5z"/>
	<path class="st20" d="M281.4,330.9c-1.2-9.1,4.2-17.6,12.4-20c7.3-2.1,15.8,0.9,20,7.6c0.9-8.5,7.6-15.2,16.1-16.1
		c7.9-0.9,15.8,3.6,18.8,11.2"/>
	<path class="st20" d="M394.9,316.7c2.7-5.5,8.8-8.5,14.6-7.3c6.1,1.2,10.3,6.4,10.3,12.4c3.9-3.9,9.7-5.5,14.6-3.3
		c5.5,2.1,7.3,7.6,7.6,8.5c5.5-2.1,11.5-0.6,15.2,3.3c3.3,3.6,4.6,9.1,2.7,14"/>
	<path class="st20" d="M370.3,408c2.7-9.1,11.2-12.7,16.1-10.3c3.6,1.8,5.8,7.3,4.9,13.4c3-5.5,9.1-7.9,14-6.4
		c6.1,1.8,9.7,10,6.4,17.3c3.9-6.4,9.4-9.7,12.4-8.5c3.3,1.5,5.5,9.1,1.5,18.2"/>
</g>
<g id="O">
	<rect x="732.2" y="461.3" class="st21" width="6.5" height="6.5"/>
	<rect x="738.7" y="461.3" class="st21" width="6.5" height="6.5"/>
	<rect x="738.7" y="467.9" class="st21" width="6.5" height="6.5"/>
	<rect x="732.2" y="467.9" class="st21" width="6.5" height="6.5"/>
</g>
<g id="L">
	<g>
		<g>
			<rect x="699.9" y="448.3" class="st22" width="6.5" height="6.5"/>
			<rect x="699.9" y="448.3" class="st23" width="6.5" height="6.5"/>
		</g>
		<g>
			<rect x="699.9" y="441.8" class="st22" width="6.5" height="6.5"/>
			<rect x="699.9" y="441.8" class="st23" width="6.5" height="6.5"/>
		</g>
		<g>
			<rect x="706.4" y="454.8" class="st22" width="6.5" height="6.5"/>
			<rect x="706.4" y="454.8" class="st23" width="6.5" height="6.5"/>
		</g>
		<g>
			<rect x="699.9" y="454.8" class="st22" width="6.5" height="6.5"/>
			<rect x="699.9" y="454.8" class="st23" width="6.5" height="6.5"/>
		</g>
	</g>
</g>
<g id="J">
	<g>
		<g>
			<rect x="712.9" y="454.8" class="st24" width="6.5" height="6.5"/>
			<rect x="712.9" y="454.8" class="st23" width="6.5" height="6.5"/>
		</g>
		<g>
			<rect x="712.9" y="448.3" class="st24" width="6.5" height="6.5"/>
			<rect x="712.9" y="448.3" class="st23" width="6.5" height="6.5"/>
		</g>
		<g>
			<rect x="706.4" y="461.3" class="st24" width="6.5" height="6.5"/>
			<rect x="706.4" y="461.3" class="st23" width="6.5" height="6.5"/>
		</g>
		<g>
			<rect x="712.9" y="461.3" class="st24" width="6.5" height="6.5"/>
			<rect x="712.9" y="461.3" class="st23" width="6.5" height="6.5"/>
		</g>
	</g>
</g>
<g id="Z">
	<g>
		<g>
			<rect x="699.9" y="461.3" class="st25" width="6.5" height="6.5"/>
			<rect x="699.9" y="461.3" class="st23" width="6.5" height="6.5"/>
		</g>
		<g>
			<rect x="693.4" y="461.3" class="st25" width="6.5" height="6.5"/>
			<rect x="693.4" y="461.3" class="st23" width="6.5" height="6.5"/>
		</g>
		<g>
			<rect x="706.4" y="467.9" class="st25" width="6.5" height="6.5"/>
			<rect x="706.4" y="467.9" class="st23" width="6.5" height="6.5"/>
		</g>
		<g>
			<rect x="699.9" y="467.9" class="st25" width="6.5" height="6.5"/>
			<rect x="699.9" y="467.9" class="st23" width="6.5" height="6.5"/>
		</g>
	</g>
</g>
<g id="S">
	<g>
		<g>
			<rect x="719.4" y="461.3" class="st26" width="6.5" height="6.5"/>
			<rect x="719.4" y="461.3" class="st23" width="6.5" height="6.5"/>
		</g>
		<g>
			<rect x="726" y="461.3" class="st26" width="6.5" height="6.5"/>
			<rect x="726" y="461.3" class="st23" width="6.5" height="6.5"/>
		</g>
		<g>
			<rect x="712.9" y="467.9" class="st26" width="6.5" height="6.5"/>
			<rect x="712.9" y="467.9" class="st23" width="6.5" height="6.5"/>
		</g>
		<g>
			<rect x="719.4" y="467.9" class="st26" width="6.5" height="6.5"/>
			<rect x="719.4" y="467.9" class="st23" width="6.5" height="6.5"/>
		</g>
	</g>
</g>
<g id="T">
	<g>
		<g>
			<rect x="680.4" y="454.8" class="st27" width="6.5" height="6.5"/>
			<rect x="680.4" y="454.8" class="st23" width="6.5" height="6.5"/>
		</g>
		<g>
			<rect x="673.9" y="454.8" class="st27" width="6.5" height="6.5"/>
			<rect x="673.9" y="454.8" class="st23" width="6.5" height="6.5"/>
		</g>
		<g>
			<rect x="686.9" y="454.8" class="st27" width="6.5" height="6.5"/>
			<rect x="686.9" y="454.8" class="st23" width="6.5" height="6.5"/>
		</g>
		<g>
			<rect x="680.4" y="461.3" class="st27" width="6.5" height="6.5"/>
			<rect x="680.4" y="461.3" class="st23" width="6.5" height="6.5"/>
		</g>
	</g>
</g>
<g id="I">
	<g>
		<g>
			<rect x="680.4" y="467.9" class="st28" width="6.5" height="6.5"/>
			<rect x="680.4" y="467.9" class="st23" width="6.5" height="6.5"/>
		</g>
		<g>
			<rect x="674" y="467.9" class="st28" width="6.5" height="6.5"/>
			<rect x="674" y="467.9" class="st23" width="6.5" height="6.5"/>
		</g>
		<g>
			<rect x="686.9" y="467.9" class="st28" width="6.5" height="6.5"/>
			<rect x="686.9" y="467.9" class="st23" width="6.5" height="6.5"/>
		</g>
		<g>
			<rect x="693.4" y="467.9" class="st28" width="6.5" height="6.5"/>
			<rect x="693.4" y="467.9" class="st23" width="6.5" height="6.5"/>
		</g>
	</g>
</g>
</svg>
