<?xml version="1.0" encoding="utf-8"?>
<!-- Generator: Adobe Illustrator 23.0.1, SVG Export Plug-In . SVG Version: 6.00 Build 0)  -->
<svg version="1.1" id="Camada_1" xmlns="http://www.w3.org/2000/svg" xmlns:xlink="http://www.w3.org/1999/xlink" x="0px" y="0px"
	 viewBox="0 0 300.8 172.9" style="enable-background:new 0 0 300.8 172.9;" xml:space="preserve">
<style type="text/css">
	.st0{fill:#B1BDC6;stroke:#000000;stroke-linecap:round;stroke-linejoin:round;stroke-miterlimit:10;}
	.st1{fill:#B7B7B7;stroke:#000000;stroke-miterlimit:10;}
	.st2{fill:#704F15;stroke:#000000;stroke-width:2;stroke-miterlimit:10;}
	.st3{fill:#C97EFF;stroke:#000000;stroke-width:2;stroke-miterlimit:10;}
	.st4{fill:#B1BDC6;stroke:#000000;stroke-miterlimit:10;}
	.st5{stroke:#02F3E7;stroke-width:0.5;stroke-miterlimit:10;}
	.st6{fill:#FA8072;}
	.st7{font-family:'MyriadPro-Regular';}
	.st8{font-size:1.6379px;}
	.st9{fill:#02F3E7;}
	.st10{fill:#00AC00;stroke:#000000;stroke-linecap:round;stroke-linejoin:round;stroke-miterlimit:10;}
	.st11{fill:#086DBD;stroke:#000000;stroke-miterlimit:10;}
	.st12{fill:#0667BF;stroke:#000000;stroke-miterlimit:10;}
	.st13{fill:#CA8B83;stroke:#000000;stroke-linecap:round;stroke-linejoin:round;stroke-miterlimit:10;}
	.st14{fill:#FF7500;stroke:#000000;stroke-width:2;stroke-linecap:round;stroke-linejoin:round;stroke-miterlimit:10;}
	.st15{fill:none;stroke:#FF4800;stroke-linecap:round;stroke-linejoin:round;stroke-miterlimit:10;}
	.st16{fill:#BF162C;stroke:#000000;stroke-linecap:round;stroke-linejoin:round;stroke-miterlimit:10;}
	.st17{fill:#1F1F1F;stroke:#000000;stroke-width:2;stroke-linecap:round;stroke-linejoin:round;stroke-miterlimit:10;}
	.st18{fill:none;stroke:#000000;stroke-linecap:round;stroke-linejoin:round;stroke-miterlimit:10;}
	.st19{display:none;}
	.st20{display:inline;fill:#0000FF;stroke:#000000;stroke-width:1.500000e-02;stroke-miterlimit:10;}
	.st21{display:inline;}
	.st22{fill:#FFFF00;}
	.st23{fill:none;stroke:#000000;stroke-width:1.500000e-02;stroke-miterlimit:10;}
	.st24{fill:#FF0000;}
	.st25{fill:#008000;}
	.st26{fill:#FFC0CB;}
	.st27{fill:#00FFFF;}
</style>
<g id="Televisao">
	<path class="st0" d="M109.1,126.6c-1.4,7.6-2.8,15.2-4.2,22.8c-0.7,2.2-0.1,4.4,1.4,5.3c1.9,1.2,4.4-0.5,4.8-0.8
		c1.9-1.3,2.6-3.3,3-4.5c2.1-6.7,2.9-17.7,3.1-19.8"/>
	<path class="st0" d="M201.2,126.6c1.4,7.6,2.8,15.2,4.2,22.8c0.7,2.2,0.1,4.4-1.4,5.3c-1.9,1.2-4.4-0.5-4.8-0.8
		c-1.9-1.3-2.6-3.3-3-4.5c-2.1-6.7-2.9-17.7-3.1-19.8"/>
	<path class="st1" d="M145.2,42.8c-6.2-5.9-12.3-11.7-18.5-17.6c0.9-0.7,1.8-1.4,2.8-2.1c5.8,6,11.5,11.9,17.3,17.9"/>
	<path class="st1" d="M152.8,42.6c9.4-10.9,18.8-21.8,28.1-32.7c-0.9-0.7-1.8-1.4-2.8-2.1c-9.2,11-18.4,21.9-27.7,32.9"/>
	<circle class="st1" cx="126.7" cy="22.2" r="3.9"/>
	<circle class="st1" cx="181" cy="6.8" r="3.9"/>
	<path class="st2" d="M211.5,133.7H98c-4.6,0-8.3-3.7-8.3-8.3v-78c0-4.6,3.7-8.3,8.3-8.3h113.5c4.6,0,8.3,3.7,8.3,8.3v78
		C219.8,130,216.1,133.7,211.5,133.7z"/>
	<path class="st3" d="M187,123.6h-81.9c-5.4,0-9.7-4.4-9.7-9.7V57.3c0-5.4,4.4-9.7,9.7-9.7H187c5.4,0,9.7,4.4,9.7,9.7v56.6
		C196.8,119.3,192.4,123.6,187,123.6z"/>
	<circle class="st4" cx="205.8" cy="62.5" r="5.6"/>
	<circle class="st4" cx="205.8" cy="80.5" r="5.6"/>
	<rect x="122.7" y="56.3" class="st5" width="23.8" height="56.6"/>
	<rect x="149.3" y="56.3" class="st5" width="23.8" height="56.6"/>
	<rect x="102.5" y="56.3" class="st5" width="15.5" height="15.5"/>
	<rect x="177.5" y="56.3" class="st5" width="15.5" height="15.5"/>
	<rect x="178" y="84.2" class="st6" width="10.3" height="2.7"/>
	<rect x="178" y="88.2" class="st6" width="10.3" height="2.7"/>
	<rect x="178" y="92.2" class="st6" width="10.3" height="2.7"/>
	<rect x="178" y="96.2" class="st6" width="10.3" height="2.7"/>
	<text transform="matrix(1 0 0 1 179.6879 86.1577)" class="st7 st8">1 Jogador</text>
	<text transform="matrix(1 0 0 1 180.2229 90.0563)" class="st7 st8">Começar</text>
	<text transform="matrix(1 0 0 1 181.2166 94.1065)" class="st7 st8">Pausa</text>
	<text transform="matrix(1 0 0 1 181.7517 98.1576)" class="st7 st8">Exit</text>
	<g>
		<g>
			<path class="st9" d="M103,90.9c-0.1-0.2-0.1-0.4-0.2-0.5c-0.1-0.2-0.2-0.2-0.5-0.2h-0.6v3.2c0,0.5,0.1,0.6,0.7,0.6v0.2h-1.9v-0.2
				c0.6,0,0.7-0.1,0.7-0.6v-3.2h-0.6c-0.4,0-0.5,0-0.6,0.2c-0.1,0.1-0.1,0.3-0.2,0.5h-0.2c0-0.4,0.1-0.8,0.1-1.2h0.1
				c0.1,0.2,0.2,0.1,0.4,0.1h2.6c0.2,0,0.2,0,0.3-0.1h0.2c0,0.3,0,0.8,0.1,1.1L103,90.9z"/>
			<path class="st9" d="M107,93.1c0,0.2-0.2,0.8-0.3,1h-3.2v-0.2c0.6,0,0.6-0.1,0.6-0.6v-2.6c0-0.6-0.1-0.6-0.6-0.7v-0.2h2
				c0.6,0,0.9,0,0.9,0c0,0.2,0,0.6,0.1,1l-0.2,0c-0.1-0.2-0.1-0.4-0.2-0.5c-0.1-0.2-0.3-0.3-0.6-0.3H105c-0.2,0-0.2,0-0.2,0.2v1.4
				h0.7c0.5,0,0.5-0.1,0.6-0.5h0.2v1.3h-0.2c-0.1-0.5-0.1-0.5-0.6-0.5h-0.7v1.3c0,0.5,0.1,0.5,0.5,0.5h0.6c0.4,0,0.5-0.1,0.6-0.2
				c0.1-0.1,0.3-0.4,0.4-0.6L107,93.1z"/>
			<path class="st9" d="M110.9,90.9c-0.1-0.2-0.1-0.4-0.2-0.5c-0.1-0.2-0.2-0.2-0.5-0.2h-0.6v3.2c0,0.5,0.1,0.6,0.7,0.6v0.2h-1.9
				v-0.2c0.6,0,0.7-0.1,0.7-0.6v-3.2h-0.6c-0.4,0-0.5,0-0.6,0.2c-0.1,0.1-0.1,0.3-0.2,0.5h-0.2c0-0.4,0.1-0.8,0.1-1.2h0.1
				c0.1,0.2,0.2,0.1,0.4,0.1h2.6c0.2,0,0.2,0,0.3-0.1h0.2c0,0.3,0,0.8,0.1,1.1L110.9,90.9z"/>
			<path class="st9" d="M115.4,94.2c-0.1,0-0.2,0-0.2,0c-0.5,0-0.7-0.2-1-0.6c-0.2-0.3-0.5-0.7-0.7-1.1c-0.1-0.2-0.2-0.2-0.5-0.2
				h-0.2v1c0,0.6,0.1,0.6,0.6,0.6v0.2h-1.7v-0.2c0.5-0.1,0.6-0.1,0.6-0.6v-2.6c0-0.6-0.1-0.6-0.6-0.6v-0.2h1.7c0.5,0,0.8,0.1,1,0.2
				c0.3,0.2,0.4,0.5,0.4,0.9c0,0.6-0.4,0.9-0.8,1.1c0.1,0.2,0.4,0.6,0.6,0.9c0.2,0.3,0.4,0.5,0.5,0.7c0.2,0.2,0.3,0.3,0.5,0.3
				L115.4,94.2z M113.1,92.1c0.3,0,0.6-0.1,0.7-0.2c0.3-0.2,0.4-0.4,0.4-0.8c0-0.7-0.5-0.9-1-0.9c-0.2,0-0.3,0-0.3,0.1
				c-0.1,0-0.1,0.1-0.1,0.3v1.6H113.1z"/>
			<path class="st9" d="M115.6,94.1v-0.2c0.5-0.1,0.6-0.1,0.6-0.6v-2.6c0-0.6-0.1-0.6-0.6-0.6v-0.2h1.7v0.2
				c-0.5,0.1-0.6,0.1-0.6,0.6v2.6c0,0.6,0.1,0.6,0.6,0.6v0.2H115.6z"/>
			<path class="st9" d="M120.1,90.9c-0.1-0.4-0.3-0.8-0.9-0.8c-0.5,0-0.7,0.4-0.7,0.7c0,0.4,0.3,0.7,0.8,1c0.8,0.4,1.1,0.7,1.1,1.3
				c0,0.7-0.6,1.2-1.4,1.2c-0.4,0-0.7-0.1-1-0.2c-0.1-0.2-0.1-0.6-0.2-1l0.2-0.1c0.1,0.4,0.4,1,1.1,1c0.5,0,0.8-0.3,0.8-0.7
				c0-0.5-0.3-0.7-0.8-1c-0.7-0.4-1.1-0.7-1.1-1.3c0-0.6,0.5-1.1,1.3-1.1c0.4,0,0.7,0.1,0.9,0.1c0,0.2,0.1,0.5,0.1,0.9L120.1,90.9z"
				/>
		</g>
	</g>
</g>
<g id="Miudo2">
	<path class="st10" d="M275.5,141.6c2.7,0.9,7.6,0.6,10.5-2.8c2.8-3.2,2.2-7.6,2.1-8.5c-2-7.3-5.3-14.9-10.5-22
		c-0.4-0.6-0.8-1.1-1.2-1.6c-2.7,1.1-5.3,2.2-8,3.3C266.1,126.7,269.1,139.4,275.5,141.6z"/>
	<path class="st10" d="M238.3,104.3c11.1,0.5,22.2,1.1,33.2,1.6c3.1,12.6,6.2,25.1,9.2,37.7c0.9,2.2,2.3,6.2,2,11.1
		c-0.1,2.5-0.3,5.7-2.3,8.7c-4,6-12.1,6.2-13.3,6.2c-7.3,1.2-13.3,0.9-17.2,0.5c-8.2-0.9-15.5-1.7-18.6-6.9c-1-1.7-2.7-5.7-2.3-10.4
		c0.1-0.7,0.2-1.4,0.2-1.8c2.8-15.3,5.5-30.5,8.3-45.8c-0.3-0.2-1-0.8-2-0.8c-1.3,0-2.6,1-3.1,2.6c-4.7,9.4-9.4,18.7-14,28.1
		c0.3,1.3,1.2,3.7,3.3,5.9c3.3,3.5,7.5,4,8.6,4.1"/>
	<path class="st11" d="M282.6,150c-6,2.2-15.8,4.9-28,4.6c-10.4-0.2-18.7-2.6-24.3-4.6c-0.8,3.9-1.5,10.6,2.3,15.4
		c3.9,4.9,10.5,4.9,23.6,5c4.5,0,13.4,0.1,20.4-3.9c3.1-1.8,4.8-4.6,4.8-4.6s1.2-1.9,1.8-3.7C283.7,156.8,283.8,153.7,282.6,150z"/>
	<path class="st12" d="M230.5,149.2c0.6-2.2,0-4-0.2-4.8c-1.7-0.6-4.5-1.8-7.2-4.3c-2.3-2.1-3.6-4.3-4.3-5.8
		c-0.4,0.9-2.8,6.3-0.2,11.4c2.4,4.7,8.3,7.7,10.5,6.2C229.9,151.4,230.2,150.3,230.5,149.2z"/>
	<path class="st12" d="M280.4,145.8c-0.8-2.1-0.4-4-0.2-4.8c0.5-0.1,4.7-0.9,6.7-5c1.9-3.7,0.6-7.2,0.4-7.8c0.8,0.8,5.9,6.3,4.6,13
		c-0.2,0.9-1,5.3-4.6,7.1c-0.3,0.2-3.3,1.6-5.3,0.1C281.1,147.7,280.7,146.7,280.4,145.8z"/>
	<path class="st13" d="M214.2,76.4c-2-0.7-3.3-2.5-3.2-4.6c0.1-1.9,1.4-3.5,3.2-4.1c0.4,1.8,1.7,3.6,1.1,5.3"/>
	<path class="st13" d="M294.7,74.2c2-0.7,3.3-2.5,3.2-4.6c-0.1-1.9-1.4-3.5-3.2-4.1c-0.4,1.8-1.7,3.6-1.1,5.3"/>
	<path class="st14" d="M215.7,71.6c-0.4,1-0.9,2.4-1.3,4.2c-0.2,0.9-0.9,4.3-0.3,8.4c0.2,1.6,1.3,7.8,6.4,12.7
		c1.7,1.6,3.1,2.5,15.1,7.6c3.5,1.5,6.5,2.7,8.7,3.7c3.5,0.6,8.5,1.3,14.4,1.4c5.3,0.1,8.9,0.2,12.6-0.8c2.8-0.7,10.4-3.3,16.9-13.8
		c1.1-0.7,5.7-3.9,7.3-10.1c1.8-7-1.5-12.6-2.1-13.5c0.5-1.4,3.3-9.6-1.1-17.4c-2.1-3.6-4.9-5.8-6.6-6.9c-0.1-0.9-0.7-6-5.3-9.6
		c-4.5-3.6-9.6-3.1-10.5-3c-1-1.1-4.9-5.3-11.5-6c-8.3-0.9-13.9,4.5-14.7,5.3c-0.8-0.3-5.4-1.8-10.3,0.7c-4.4,2.2-6.1,6.2-6.4,7.1
		c-1.6,1.1-4.9,3.7-7.1,8.5c-1.9,4.1-1.9,7.7-1.8,9.6c-0.4,0.1-3.1,1-4.4,3.9c-1.3,2.9-0.2,5.6,0,6L215.7,71.6z"/>
	<path class="st15" d="M224.1,65.5c-0.4-3,1.4-5.8,4.1-6.6c2.4-0.7,5.2,0.3,6.6,2.5c0.3-2.8,2.5-5,5.3-5.3c2.6-0.3,5.2,1.2,6.2,3.7"
		/>
	<path class="st15" d="M261.5,60.8c0.9-1.8,2.9-2.8,4.8-2.4c2,0.4,3.4,2.1,3.4,4.1c1.3-1.3,3.2-1.8,4.8-1.1c1.8,0.7,2.4,2.5,2.5,2.8
		c1.8-0.7,3.8-0.2,5,1.1c1.1,1.2,1.5,3,0.9,4.6"/>
	<path class="st15" d="M253.4,91c0.9-3,3.7-4.2,5.3-3.4c1.2,0.6,1.9,2.4,1.6,4.4c1-1.8,3-2.6,4.6-2.1c2,0.6,3.2,3.3,2.1,5.7
		c1.3-2.1,3.1-3.2,4.1-2.8c1.1,0.5,1.8,3,0.5,6"/>
</g>
<g id="Miudo1">
	<path class="st16" d="M71.4,141.5c2.7,0.9,7.6,0.6,10.5-2.8c2.8-3.2,2.2-7.6,2.1-8.5c-2-7.3-5.3-14.9-10.5-22
		c-0.4-0.6-0.8-1.1-1.2-1.6c-2.7,1.1-5.3,2.2-8,3.3C62.1,126.6,65.1,139.3,71.4,141.5z"/>
	<path class="st16" d="M34.3,104.1c11.1,0.6,22.2,1.1,33.2,1.6c3.1,12.6,6.2,25.1,9.2,37.7c0.9,2.2,2.3,6.2,2,11.1
		c-0.1,2.5-0.3,5.7-2.3,8.7c-4,6-12.1,6.2-13.3,6.2c-7.3,1.2-13.3,0.9-17.2,0.5c-8.2-0.9-15.5-1.7-18.6-6.9c-1-1.7-2.7-5.7-2.3-10.4
		c0.1-0.7,0.2-1.4,0.2-1.8c2.8-15.3,5.5-30.5,8.3-45.8c-0.3-0.2-1-0.8-2-0.8c-1.3,0-2.6,1-3.1,2.6c-4.7,9.4-9.4,18.7-14,28.1
		c0.3,1.3,1.2,3.7,3.3,5.9c3.3,3.5,7.5,4,8.6,4.1"/>
	<path class="st11" d="M78.6,149.9c-6,2.2-15.8,4.9-28,4.6c-10.4-0.2-18.7-2.6-24.3-4.6c-0.8,3.9-1.5,10.6,2.3,15.4
		c3.9,4.9,10.5,4.9,23.6,5c4.5,0,13.4,0.1,20.4-3.9c3.1-1.8,4.8-4.6,4.8-4.6s1.2-1.9,1.8-3.7C79.7,156.7,79.8,153.5,78.6,149.9z"/>
	<path class="st12" d="M26.4,149c0.6-2.2,0-4-0.2-4.8c-1.7-0.6-4.5-1.8-7.2-4.3c-2.3-2.1-3.6-4.3-4.3-5.8c-0.4,0.9-2.8,6.3-0.2,11.4
		c2.4,4.7,8.3,7.7,10.5,6.2C25.9,151.3,26.2,150.1,26.4,149z"/>
	<path class="st12" d="M76.4,145.7c-0.8-2.1-0.4-4-0.2-4.8c0.5-0.1,4.7-0.9,6.7-5c1.9-3.7,0.6-7.2,0.4-7.8c0.8,0.8,5.9,6.3,4.6,13
		c-0.2,0.9-1,5.3-4.6,7.1c-0.3,0.2-3.3,1.6-5.3,0.1C77.1,147.6,76.7,146.6,76.4,145.7z"/>
	<path class="st13" d="M10.2,76.2c-2-0.7-3.3-2.5-3.2-4.6c0.1-1.9,1.4-3.5,3.2-4.1c0.4,1.8,1.7,3.6,1.1,5.3"/>
	<path class="st13" d="M90.7,74.1c2-0.7,3.3-2.5,3.2-4.6c-0.1-1.9-1.4-3.5-3.2-4.1c-0.4,1.8-1.7,3.6-1.1,5.3"/>
	<path class="st17" d="M11.7,71.5c-0.4,1-0.9,2.4-1.3,4.2c-0.2,0.9-0.9,4.3-0.3,8.4c0.2,1.6,1.3,7.8,6.4,12.7
		c1.7,1.6,3.1,2.5,15.1,7.6c3.5,1.5,6.5,2.7,8.7,3.7c3.5,0.6,8.5,1.3,14.4,1.4c5.3,0.1,8.9,0.2,12.6-0.8c3-0.9,10.5-3.5,17.1-14
		c1.1-0.7,5.7-3.9,7.3-10.1c1.8-7-1.5-12.6-2.1-13.5c0.5-1.4,3.3-9.6-1.1-17.4c-2.1-3.6-4.9-5.8-6.6-6.9c-0.1-0.9-0.7-6-5.3-9.6
		c-4.5-3.6-9.6-3.1-10.5-3c-1-1.1-4.9-5.3-11.5-6c-8.3-0.9-13.9,4.5-14.7,5.2c-0.8-0.2-5.4-1.7-10.3,0.7c-4.4,2.2-6.1,6.2-6.4,7.1
		c-1.6,1.1-4.9,3.7-7.1,8.5c-1.9,4.1-1.9,7.7-1.8,9.6c-0.4,0.1-3.1,1-4.4,3.9s-0.2,5.6,0,6L11.7,71.5z"/>
	<path class="st18" d="M20.1,65.4c-0.4-3,1.4-5.8,4.1-6.6c2.4-0.7,5.2,0.3,6.6,2.5c0.3-2.8,2.5-5,5.3-5.3c2.6-0.3,5.2,1.2,6.2,3.7"
		/>
	<path class="st18" d="M57.5,60.7c0.9-1.8,2.9-2.8,4.8-2.4c2,0.4,3.4,2.1,3.4,4.1c1.3-1.3,3.2-1.8,4.8-1.1c1.8,0.7,2.4,2.5,2.5,2.8
		c1.8-0.7,3.8-0.2,5,1.1c1.1,1.2,1.5,3,0.9,4.6"/>
	<path class="st18" d="M49.4,90.8c0.9-3,3.7-4.2,5.3-3.4c1.2,0.6,1.9,2.4,1.6,4.4c1-1.8,3-2.6,4.6-2.1c2,0.6,3.2,3.3,2.1,5.7
		c1.3-2.1,3.1-3.2,4.1-2.8c1.1,0.5,1.8,3,0.5,6"/>
</g>
<g id="Z" class="st19">
	<rect x="149.5" y="108.8" class="st20" width="1.9" height="1.9"/>
	<rect x="151.4" y="108.8" class="st20" width="1.9" height="1.9"/>
	<rect x="151.4" y="110.7" class="st20" width="1.9" height="1.9"/>
	<rect x="149.5" y="110.7" class="st20" width="1.9" height="1.9"/>
</g>
<g id="L" class="st19">
	<g class="st21">
		<g>
			<rect x="168.6" y="108.8" class="st22" width="1.9" height="1.9"/>
			<rect x="168.6" y="108.8" class="st23" width="1.9" height="1.9"/>
		</g>
		<g>
			<rect x="168.6" y="106.8" class="st22" width="1.9" height="1.9"/>
			<rect x="168.6" y="106.8" class="st23" width="1.9" height="1.9"/>
		</g>
		<g>
			<rect x="170.6" y="110.7" class="st22" width="1.9" height="1.9"/>
			<rect x="170.6" y="110.7" class="st23" width="1.9" height="1.9"/>
		</g>
		<g>
			<rect x="168.6" y="110.7" class="st22" width="1.9" height="1.9"/>
			<rect x="168.6" y="110.7" class="st23" width="1.9" height="1.9"/>
		</g>
	</g>
</g>
<g id="O" class="st19">
	<g class="st21">
		<g>
			<rect x="153.4" y="106.8" class="st24" width="1.9" height="1.9"/>
			<rect x="153.4" y="106.8" class="st23" width="1.9" height="1.9"/>
		</g>
		<g>
			<rect x="151.5" y="106.8" class="st24" width="1.9" height="1.9"/>
			<rect x="151.5" y="106.8" class="st23" width="1.9" height="1.9"/>
		</g>
		<g>
			<rect x="155.3" y="108.8" class="st24" width="1.9" height="1.9"/>
			<rect x="155.3" y="108.8" class="st23" width="1.9" height="1.9"/>
		</g>
		<g>
			<rect x="153.4" y="108.8" class="st24" width="1.9" height="1.9"/>
			<rect x="153.4" y="108.8" class="st23" width="1.9" height="1.9"/>
		</g>
	</g>
</g>
<g id="Z_1_" class="st19">
	<g class="st21">
		<g>
			<rect x="164.8" y="108.8" class="st25" width="1.9" height="1.9"/>
			<rect x="164.8" y="108.8" class="st23" width="1.9" height="1.9"/>
		</g>
		<g>
			<rect x="166.7" y="108.8" class="st25" width="1.9" height="1.9"/>
			<rect x="166.7" y="108.8" class="st23" width="1.9" height="1.9"/>
		</g>
		<g>
			<rect x="162.9" y="110.7" class="st25" width="1.9" height="1.9"/>
			<rect x="162.9" y="110.7" class="st23" width="1.9" height="1.9"/>
		</g>
		<g>
			<rect x="164.8" y="110.7" class="st25" width="1.9" height="1.9"/>
			<rect x="164.8" y="110.7" class="st23" width="1.9" height="1.9"/>
		</g>
	</g>
</g>
<g id="O_1_" class="st19">
	<g class="st21">
		<g>
			<rect x="160.9" y="108.8" class="st26" width="1.9" height="1.9"/>
			<rect x="160.9" y="108.8" class="st23" width="1.9" height="1.9"/>
		</g>
		<g>
			<rect x="159" y="108.8" class="st26" width="1.9" height="1.9"/>
			<rect x="159" y="108.8" class="st23" width="1.9" height="1.9"/>
		</g>
		<g>
			<rect x="162.9" y="108.8" class="st26" width="1.9" height="1.9"/>
			<rect x="162.9" y="108.8" class="st23" width="1.9" height="1.9"/>
		</g>
		<g>
			<rect x="160.9" y="110.7" class="st26" width="1.9" height="1.9"/>
			<rect x="160.9" y="110.7" class="st23" width="1.9" height="1.9"/>
		</g>
	</g>
</g>
<g id="O_2_" class="st19">
	<g class="st21">
		<g>
			<rect x="155.3" y="110.7" class="st27" width="1.9" height="1.9"/>
			<rect x="155.3" y="110.7" class="st23" width="1.9" height="1.9"/>
		</g>
		<g>
			<rect x="153.3" y="110.7" class="st27" width="1.9" height="1.9"/>
			<rect x="153.3" y="110.7" class="st23" width="1.9" height="1.9"/>
		</g>
		<g>
			<rect x="157.2" y="110.7" class="st27" width="1.9" height="1.9"/>
			<rect x="157.2" y="110.7" class="st23" width="1.9" height="1.9"/>
		</g>
		<g>
			<rect x="159.1" y="110.7" class="st27" width="1.9" height="1.9"/>
			<rect x="159.1" y="110.7" class="st23" width="1.9" height="1.9"/>
		</g>
	</g>
</g>
</svg>